<?xml version="1.0" encoding="utf-8" standalone="no"?>
<!DOCTYPE svg PUBLIC "-//W3C//DTD SVG 1.1//EN"
        "http://www.w3.org/Graphics/SVG/1.1/DTD/svg11.dtd">
<!-- Created with matplotlib (https://matplotlib.org/) -->
<svg xmlns:xlink="http://www.w3.org/1999/xlink" height="331.674375pt" version="1.1" viewBox="0 0 894.34375 331.674375"
     width="894.34375pt" xmlns="http://www.w3.org/2000/svg">
    <metadata>
        <rdf:RDF xmlns:cc="http://creativecommons.org/ns#" xmlns:dc="http://purl.org/dc/elements/1.1/"
                 xmlns:rdf="http://www.w3.org/1999/02/22-rdf-syntax-ns#">
            <cc:Work>
                <dc:type rdf:resource="http://purl.org/dc/dcmitype/StillImage"/>
                <dc:date>2020-07-25T10:12:03.274026</dc:date>
                <dc:format>image/svg+xml</dc:format>
                <dc:creator>
                    <cc:Agent>
                        <dc:title>Matplotlib v3.3.0, https://matplotlib.org/</dc:title>
                    </cc:Agent>
                </dc:creator>
            </cc:Work>
        </rdf:RDF>
    </metadata>
    <defs>
        <style type="text/css">*{stroke-linecap:butt;stroke-linejoin:round;}</style>
    </defs>
    <g id="figure_1">
        <g id="patch_1">
            <path d="M 0 331.674375
L 894.34375 331.674375
L 894.34375 0
L 0 0
z
" style="fill:none;"/>
        </g>
        <g id="axes_1">
            <g id="patch_2">
                <path d="M 50.14375 294.118125
L 430.598295 294.118125
L 430.598295 22.318125
L 50.14375 22.318125
z
" style="fill:#ffffff;"/>
            </g>
            <g id="matplotlib.axis_1">
                <g id="xtick_1">
                    <g id="line2d_1">
                        <defs>
                            <path d="M 0 0
L 0 3.5
" id="m078e677783" style="stroke:#000000;stroke-width:0.8;"/>
                        </defs>
                        <g>
                            <use style="stroke:#000000;stroke-width:0.8;" x="67.039589" xlink:href="#m078e677783"
                                 y="294.118125"/>
                        </g>
                    </g>
                    <g id="text_1">
                        <!-- 0 -->
                        <g transform="translate(63.858339 308.716563)scale(0.1 -0.1)">
                            <defs>
                                <path d="M 31.78125 66.40625
Q 24.171875 66.40625 20.328125 58.90625
Q 16.5 51.421875 16.5 36.375
Q 16.5 21.390625 20.328125 13.890625
Q 24.171875 6.390625 31.78125 6.390625
Q 39.453125 6.390625 43.28125 13.890625
Q 47.125 21.390625 47.125 36.375
Q 47.125 51.421875 43.28125 58.90625
Q 39.453125 66.40625 31.78125 66.40625
z
M 31.78125 74.21875
Q 44.046875 74.21875 50.515625 64.515625
Q 56.984375 54.828125 56.984375 36.375
Q 56.984375 17.96875 50.515625 8.265625
Q 44.046875 -1.421875 31.78125 -1.421875
Q 19.53125 -1.421875 13.0625 8.265625
Q 6.59375 17.96875 6.59375 36.375
Q 6.59375 54.828125 13.0625 64.515625
Q 19.53125 74.21875 31.78125 74.21875
z
" id="DejaVuSans-48"/>
                            </defs>
                            <use xlink:href="#DejaVuSans-48"/>
                        </g>
                    </g>
                </g>
                <g id="xtick_2">
                    <g id="line2d_2">
                        <g>
                            <use style="stroke:#000000;stroke-width:0.8;" x="146.549421" xlink:href="#m078e677783"
                                 y="294.118125"/>
                        </g>
                    </g>
                    <g id="text_2">
                        <!-- 200 -->
                        <g transform="translate(137.005671 308.716563)scale(0.1 -0.1)">
                            <defs>
                                <path d="M 19.1875 8.296875
L 53.609375 8.296875
L 53.609375 0
L 7.328125 0
L 7.328125 8.296875
Q 12.9375 14.109375 22.625 23.890625
Q 32.328125 33.6875 34.8125 36.53125
Q 39.546875 41.84375 41.421875 45.53125
Q 43.3125 49.21875 43.3125 52.78125
Q 43.3125 58.59375 39.234375 62.25
Q 35.15625 65.921875 28.609375 65.921875
Q 23.96875 65.921875 18.8125 64.3125
Q 13.671875 62.703125 7.8125 59.421875
L 7.8125 69.390625
Q 13.765625 71.78125 18.9375 73
Q 24.125 74.21875 28.421875 74.21875
Q 39.75 74.21875 46.484375 68.546875
Q 53.21875 62.890625 53.21875 53.421875
Q 53.21875 48.921875 51.53125 44.890625
Q 49.859375 40.875 45.40625 35.40625
Q 44.1875 33.984375 37.640625 27.21875
Q 31.109375 20.453125 19.1875 8.296875
z
" id="DejaVuSans-50"/>
                            </defs>
                            <use xlink:href="#DejaVuSans-50"/>
                            <use x="63.623047" xlink:href="#DejaVuSans-48"/>
                            <use x="127.246094" xlink:href="#DejaVuSans-48"/>
                        </g>
                    </g>
                </g>
                <g id="xtick_3">
                    <g id="line2d_3">
                        <g>
                            <use style="stroke:#000000;stroke-width:0.8;" x="226.059253" xlink:href="#m078e677783"
                                 y="294.118125"/>
                        </g>
                    </g>
                    <g id="text_3">
                        <!-- 400 -->
                        <g transform="translate(216.515503 308.716563)scale(0.1 -0.1)">
                            <defs>
                                <path d="M 37.796875 64.3125
L 12.890625 25.390625
L 37.796875 25.390625
z
M 35.203125 72.90625
L 47.609375 72.90625
L 47.609375 25.390625
L 58.015625 25.390625
L 58.015625 17.1875
L 47.609375 17.1875
L 47.609375 0
L 37.796875 0
L 37.796875 17.1875
L 4.890625 17.1875
L 4.890625 26.703125
z
" id="DejaVuSans-52"/>
                            </defs>
                            <use xlink:href="#DejaVuSans-52"/>
                            <use x="63.623047" xlink:href="#DejaVuSans-48"/>
                            <use x="127.246094" xlink:href="#DejaVuSans-48"/>
                        </g>
                    </g>
                </g>
                <g id="xtick_4">
                    <g id="line2d_4">
                        <g>
                            <use style="stroke:#000000;stroke-width:0.8;" x="305.569085" xlink:href="#m078e677783"
                                 y="294.118125"/>
                        </g>
                    </g>
                    <g id="text_4">
                        <!-- 600 -->
                        <g transform="translate(296.025335 308.716563)scale(0.1 -0.1)">
                            <defs>
                                <path d="M 33.015625 40.375
Q 26.375 40.375 22.484375 35.828125
Q 18.609375 31.296875 18.609375 23.390625
Q 18.609375 15.53125 22.484375 10.953125
Q 26.375 6.390625 33.015625 6.390625
Q 39.65625 6.390625 43.53125 10.953125
Q 47.40625 15.53125 47.40625 23.390625
Q 47.40625 31.296875 43.53125 35.828125
Q 39.65625 40.375 33.015625 40.375
z
M 52.59375 71.296875
L 52.59375 62.3125
Q 48.875 64.0625 45.09375 64.984375
Q 41.3125 65.921875 37.59375 65.921875
Q 27.828125 65.921875 22.671875 59.328125
Q 17.53125 52.734375 16.796875 39.40625
Q 19.671875 43.65625 24.015625 45.921875
Q 28.375 48.1875 33.59375 48.1875
Q 44.578125 48.1875 50.953125 41.515625
Q 57.328125 34.859375 57.328125 23.390625
Q 57.328125 12.15625 50.6875 5.359375
Q 44.046875 -1.421875 33.015625 -1.421875
Q 20.359375 -1.421875 13.671875 8.265625
Q 6.984375 17.96875 6.984375 36.375
Q 6.984375 53.65625 15.1875 63.9375
Q 23.390625 74.21875 37.203125 74.21875
Q 40.921875 74.21875 44.703125 73.484375
Q 48.484375 72.75 52.59375 71.296875
z
" id="DejaVuSans-54"/>
                            </defs>
                            <use xlink:href="#DejaVuSans-54"/>
                            <use x="63.623047" xlink:href="#DejaVuSans-48"/>
                            <use x="127.246094" xlink:href="#DejaVuSans-48"/>
                        </g>
                    </g>
                </g>
                <g id="xtick_5">
                    <g id="line2d_5">
                        <g>
                            <use style="stroke:#000000;stroke-width:0.8;" x="385.078917" xlink:href="#m078e677783"
                                 y="294.118125"/>
                        </g>
                    </g>
                    <g id="text_5">
                        <!-- 800 -->
                        <g transform="translate(375.535167 308.716563)scale(0.1 -0.1)">
                            <defs>
                                <path d="M 31.78125 34.625
Q 24.75 34.625 20.71875 30.859375
Q 16.703125 27.09375 16.703125 20.515625
Q 16.703125 13.921875 20.71875 10.15625
Q 24.75 6.390625 31.78125 6.390625
Q 38.8125 6.390625 42.859375 10.171875
Q 46.921875 13.96875 46.921875 20.515625
Q 46.921875 27.09375 42.890625 30.859375
Q 38.875 34.625 31.78125 34.625
z
M 21.921875 38.8125
Q 15.578125 40.375 12.03125 44.71875
Q 8.5 49.078125 8.5 55.328125
Q 8.5 64.0625 14.71875 69.140625
Q 20.953125 74.21875 31.78125 74.21875
Q 42.671875 74.21875 48.875 69.140625
Q 55.078125 64.0625 55.078125 55.328125
Q 55.078125 49.078125 51.53125 44.71875
Q 48 40.375 41.703125 38.8125
Q 48.828125 37.15625 52.796875 32.3125
Q 56.78125 27.484375 56.78125 20.515625
Q 56.78125 9.90625 50.3125 4.234375
Q 43.84375 -1.421875 31.78125 -1.421875
Q 19.734375 -1.421875 13.25 4.234375
Q 6.78125 9.90625 6.78125 20.515625
Q 6.78125 27.484375 10.78125 32.3125
Q 14.796875 37.15625 21.921875 38.8125
z
M 18.3125 54.390625
Q 18.3125 48.734375 21.84375 45.5625
Q 25.390625 42.390625 31.78125 42.390625
Q 38.140625 42.390625 41.71875 45.5625
Q 45.3125 48.734375 45.3125 54.390625
Q 45.3125 60.0625 41.71875 63.234375
Q 38.140625 66.40625 31.78125 66.40625
Q 25.390625 66.40625 21.84375 63.234375
Q 18.3125 60.0625 18.3125 54.390625
z
" id="DejaVuSans-56"/>
                            </defs>
                            <use xlink:href="#DejaVuSans-56"/>
                            <use x="63.623047" xlink:href="#DejaVuSans-48"/>
                            <use x="127.246094" xlink:href="#DejaVuSans-48"/>
                        </g>
                    </g>
                </g>
                <g id="text_6">
                    <!-- Batch Index -->
                    <g transform="translate(210.642898 322.394687)scale(0.1 -0.1)">
                        <defs>
                            <path d="M 19.671875 34.8125
L 19.671875 8.109375
L 35.5 8.109375
Q 43.453125 8.109375 47.28125 11.40625
Q 51.125 14.703125 51.125 21.484375
Q 51.125 28.328125 47.28125 31.5625
Q 43.453125 34.8125 35.5 34.8125
z
M 19.671875 64.796875
L 19.671875 42.828125
L 34.28125 42.828125
Q 41.5 42.828125 45.03125 45.53125
Q 48.578125 48.25 48.578125 53.8125
Q 48.578125 59.328125 45.03125 62.0625
Q 41.5 64.796875 34.28125 64.796875
z
M 9.8125 72.90625
L 35.015625 72.90625
Q 46.296875 72.90625 52.390625 68.21875
Q 58.5 63.53125 58.5 54.890625
Q 58.5 48.1875 55.375 44.234375
Q 52.25 40.28125 46.1875 39.3125
Q 53.46875 37.75 57.5 32.78125
Q 61.53125 27.828125 61.53125 20.40625
Q 61.53125 10.640625 54.890625 5.3125
Q 48.25 0 35.984375 0
L 9.8125 0
z
" id="DejaVuSans-66"/>
                            <path d="M 34.28125 27.484375
Q 23.390625 27.484375 19.1875 25
Q 14.984375 22.515625 14.984375 16.5
Q 14.984375 11.71875 18.140625 8.90625
Q 21.296875 6.109375 26.703125 6.109375
Q 34.1875 6.109375 38.703125 11.40625
Q 43.21875 16.703125 43.21875 25.484375
L 43.21875 27.484375
z
M 52.203125 31.203125
L 52.203125 0
L 43.21875 0
L 43.21875 8.296875
Q 40.140625 3.328125 35.546875 0.953125
Q 30.953125 -1.421875 24.3125 -1.421875
Q 15.921875 -1.421875 10.953125 3.296875
Q 6 8.015625 6 15.921875
Q 6 25.140625 12.171875 29.828125
Q 18.359375 34.515625 30.609375 34.515625
L 43.21875 34.515625
L 43.21875 35.40625
Q 43.21875 41.609375 39.140625 45
Q 35.0625 48.390625 27.6875 48.390625
Q 23 48.390625 18.546875 47.265625
Q 14.109375 46.140625 10.015625 43.890625
L 10.015625 52.203125
Q 14.9375 54.109375 19.578125 55.046875
Q 24.21875 56 28.609375 56
Q 40.484375 56 46.34375 49.84375
Q 52.203125 43.703125 52.203125 31.203125
z
" id="DejaVuSans-97"/>
                            <path d="M 18.3125 70.21875
L 18.3125 54.6875
L 36.8125 54.6875
L 36.8125 47.703125
L 18.3125 47.703125
L 18.3125 18.015625
Q 18.3125 11.328125 20.140625 9.421875
Q 21.96875 7.515625 27.59375 7.515625
L 36.8125 7.515625
L 36.8125 0
L 27.59375 0
Q 17.1875 0 13.234375 3.875
Q 9.28125 7.765625 9.28125 18.015625
L 9.28125 47.703125
L 2.6875 47.703125
L 2.6875 54.6875
L 9.28125 54.6875
L 9.28125 70.21875
z
" id="DejaVuSans-116"/>
                            <path d="M 48.78125 52.59375
L 48.78125 44.1875
Q 44.96875 46.296875 41.140625 47.34375
Q 37.3125 48.390625 33.40625 48.390625
Q 24.65625 48.390625 19.8125 42.84375
Q 14.984375 37.3125 14.984375 27.296875
Q 14.984375 17.28125 19.8125 11.734375
Q 24.65625 6.203125 33.40625 6.203125
Q 37.3125 6.203125 41.140625 7.25
Q 44.96875 8.296875 48.78125 10.40625
L 48.78125 2.09375
Q 45.015625 0.34375 40.984375 -0.53125
Q 36.96875 -1.421875 32.421875 -1.421875
Q 20.0625 -1.421875 12.78125 6.34375
Q 5.515625 14.109375 5.515625 27.296875
Q 5.515625 40.671875 12.859375 48.328125
Q 20.21875 56 33.015625 56
Q 37.15625 56 41.109375 55.140625
Q 45.0625 54.296875 48.78125 52.59375
z
" id="DejaVuSans-99"/>
                            <path d="M 54.890625 33.015625
L 54.890625 0
L 45.90625 0
L 45.90625 32.71875
Q 45.90625 40.484375 42.875 44.328125
Q 39.84375 48.1875 33.796875 48.1875
Q 26.515625 48.1875 22.3125 43.546875
Q 18.109375 38.921875 18.109375 30.90625
L 18.109375 0
L 9.078125 0
L 9.078125 75.984375
L 18.109375 75.984375
L 18.109375 46.1875
Q 21.34375 51.125 25.703125 53.5625
Q 30.078125 56 35.796875 56
Q 45.21875 56 50.046875 50.171875
Q 54.890625 44.34375 54.890625 33.015625
z
" id="DejaVuSans-104"/>
                            <path id="DejaVuSans-32"/>
                            <path d="M 9.8125 72.90625
L 19.671875 72.90625
L 19.671875 0
L 9.8125 0
z
" id="DejaVuSans-73"/>
                            <path d="M 54.890625 33.015625
L 54.890625 0
L 45.90625 0
L 45.90625 32.71875
Q 45.90625 40.484375 42.875 44.328125
Q 39.84375 48.1875 33.796875 48.1875
Q 26.515625 48.1875 22.3125 43.546875
Q 18.109375 38.921875 18.109375 30.90625
L 18.109375 0
L 9.078125 0
L 9.078125 54.6875
L 18.109375 54.6875
L 18.109375 46.1875
Q 21.34375 51.125 25.703125 53.5625
Q 30.078125 56 35.796875 56
Q 45.21875 56 50.046875 50.171875
Q 54.890625 44.34375 54.890625 33.015625
z
" id="DejaVuSans-110"/>
                            <path d="M 45.40625 46.390625
L 45.40625 75.984375
L 54.390625 75.984375
L 54.390625 0
L 45.40625 0
L 45.40625 8.203125
Q 42.578125 3.328125 38.25 0.953125
Q 33.9375 -1.421875 27.875 -1.421875
Q 17.96875 -1.421875 11.734375 6.484375
Q 5.515625 14.40625 5.515625 27.296875
Q 5.515625 40.1875 11.734375 48.09375
Q 17.96875 56 27.875 56
Q 33.9375 56 38.25 53.625
Q 42.578125 51.265625 45.40625 46.390625
z
M 14.796875 27.296875
Q 14.796875 17.390625 18.875 11.75
Q 22.953125 6.109375 30.078125 6.109375
Q 37.203125 6.109375 41.296875 11.75
Q 45.40625 17.390625 45.40625 27.296875
Q 45.40625 37.203125 41.296875 42.84375
Q 37.203125 48.484375 30.078125 48.484375
Q 22.953125 48.484375 18.875 42.84375
Q 14.796875 37.203125 14.796875 27.296875
z
" id="DejaVuSans-100"/>
                            <path d="M 56.203125 29.59375
L 56.203125 25.203125
L 14.890625 25.203125
Q 15.484375 15.921875 20.484375 11.0625
Q 25.484375 6.203125 34.421875 6.203125
Q 39.59375 6.203125 44.453125 7.46875
Q 49.3125 8.734375 54.109375 11.28125
L 54.109375 2.78125
Q 49.265625 0.734375 44.1875 -0.34375
Q 39.109375 -1.421875 33.890625 -1.421875
Q 20.796875 -1.421875 13.15625 6.1875
Q 5.515625 13.8125 5.515625 26.8125
Q 5.515625 40.234375 12.765625 48.109375
Q 20.015625 56 32.328125 56
Q 43.359375 56 49.78125 48.890625
Q 56.203125 41.796875 56.203125 29.59375
z
M 47.21875 32.234375
Q 47.125 39.59375 43.09375 43.984375
Q 39.0625 48.390625 32.421875 48.390625
Q 24.90625 48.390625 20.390625 44.140625
Q 15.875 39.890625 15.1875 32.171875
z
" id="DejaVuSans-101"/>
                            <path d="M 54.890625 54.6875
L 35.109375 28.078125
L 55.90625 0
L 45.3125 0
L 29.390625 21.484375
L 13.484375 0
L 2.875 0
L 24.125 28.609375
L 4.6875 54.6875
L 15.28125 54.6875
L 29.78125 35.203125
L 44.28125 54.6875
z
" id="DejaVuSans-120"/>
                        </defs>
                        <use xlink:href="#DejaVuSans-66"/>
                        <use x="68.603516" xlink:href="#DejaVuSans-97"/>
                        <use x="129.882812" xlink:href="#DejaVuSans-116"/>
                        <use x="169.091797" xlink:href="#DejaVuSans-99"/>
                        <use x="224.072266" xlink:href="#DejaVuSans-104"/>
                        <use x="287.451172" xlink:href="#DejaVuSans-32"/>
                        <use x="319.238281" xlink:href="#DejaVuSans-73"/>
                        <use x="348.730469" xlink:href="#DejaVuSans-110"/>
                        <use x="412.109375" xlink:href="#DejaVuSans-100"/>
                        <use x="475.585938" xlink:href="#DejaVuSans-101"/>
                        <use x="535.359375" xlink:href="#DejaVuSans-120"/>
                    </g>
                </g>
            </g>
            <g id="matplotlib.axis_2">
                <g id="ytick_1">
                    <g id="line2d_6">
                        <defs>
                            <path d="M 0 0
L -3.5 0
" id="m752f9cf213" style="stroke:#000000;stroke-width:0.8;"/>
                        </defs>
                        <g>
                            <use style="stroke:#000000;stroke-width:0.8;" x="50.14375" xlink:href="#m752f9cf213"
                                 y="282.460789"/>
                        </g>
                    </g>
                    <g id="text_7">
                        <!-- 0.0 -->
                        <g transform="translate(27.240625 286.260007)scale(0.1 -0.1)">
                            <defs>
                                <path d="M 10.6875 12.40625
L 21 12.40625
L 21 0
L 10.6875 0
z
" id="DejaVuSans-46"/>
                            </defs>
                            <use xlink:href="#DejaVuSans-48"/>
                            <use x="63.623047" xlink:href="#DejaVuSans-46"/>
                            <use x="95.410156" xlink:href="#DejaVuSans-48"/>
                        </g>
                    </g>
                </g>
                <g id="ytick_2">
                    <g id="line2d_7">
                        <g>
                            <use style="stroke:#000000;stroke-width:0.8;" x="50.14375" xlink:href="#m752f9cf213"
                                 y="245.850184"/>
                        </g>
                    </g>
                    <g id="text_8">
                        <!-- 2.5 -->
                        <g transform="translate(27.240625 249.649402)scale(0.1 -0.1)">
                            <defs>
                                <path d="M 10.796875 72.90625
L 49.515625 72.90625
L 49.515625 64.59375
L 19.828125 64.59375
L 19.828125 46.734375
Q 21.96875 47.46875 24.109375 47.828125
Q 26.265625 48.1875 28.421875 48.1875
Q 40.625 48.1875 47.75 41.5
Q 54.890625 34.8125 54.890625 23.390625
Q 54.890625 11.625 47.5625 5.09375
Q 40.234375 -1.421875 26.90625 -1.421875
Q 22.3125 -1.421875 17.546875 -0.640625
Q 12.796875 0.140625 7.71875 1.703125
L 7.71875 11.625
Q 12.109375 9.234375 16.796875 8.0625
Q 21.484375 6.890625 26.703125 6.890625
Q 35.15625 6.890625 40.078125 11.328125
Q 45.015625 15.765625 45.015625 23.390625
Q 45.015625 31 40.078125 35.4375
Q 35.15625 39.890625 26.703125 39.890625
Q 22.75 39.890625 18.8125 39.015625
Q 14.890625 38.140625 10.796875 36.28125
z
" id="DejaVuSans-53"/>
                            </defs>
                            <use xlink:href="#DejaVuSans-50"/>
                            <use x="63.623047" xlink:href="#DejaVuSans-46"/>
                            <use x="95.410156" xlink:href="#DejaVuSans-53"/>
                        </g>
                    </g>
                </g>
                <g id="ytick_3">
                    <g id="line2d_8">
                        <g>
                            <use style="stroke:#000000;stroke-width:0.8;" x="50.14375" xlink:href="#m752f9cf213"
                                 y="209.239578"/>
                        </g>
                    </g>
                    <g id="text_9">
                        <!-- 5.0 -->
                        <g transform="translate(27.240625 213.038797)scale(0.1 -0.1)">
                            <use xlink:href="#DejaVuSans-53"/>
                            <use x="63.623047" xlink:href="#DejaVuSans-46"/>
                            <use x="95.410156" xlink:href="#DejaVuSans-48"/>
                        </g>
                    </g>
                </g>
                <g id="ytick_4">
                    <g id="line2d_9">
                        <g>
                            <use style="stroke:#000000;stroke-width:0.8;" x="50.14375" xlink:href="#m752f9cf213"
                                 y="172.628973"/>
                        </g>
                    </g>
                    <g id="text_10">
                        <!-- 7.5 -->
                        <g transform="translate(27.240625 176.428192)scale(0.1 -0.1)">
                            <defs>
                                <path d="M 8.203125 72.90625
L 55.078125 72.90625
L 55.078125 68.703125
L 28.609375 0
L 18.3125 0
L 43.21875 64.59375
L 8.203125 64.59375
z
" id="DejaVuSans-55"/>
                            </defs>
                            <use xlink:href="#DejaVuSans-55"/>
                            <use x="63.623047" xlink:href="#DejaVuSans-46"/>
                            <use x="95.410156" xlink:href="#DejaVuSans-53"/>
                        </g>
                    </g>
                </g>
                <g id="ytick_5">
                    <g id="line2d_10">
                        <g>
                            <use style="stroke:#000000;stroke-width:0.8;" x="50.14375" xlink:href="#m752f9cf213"
                                 y="136.018368"/>
                        </g>
                    </g>
                    <g id="text_11">
                        <!-- 10.0 -->
                        <g transform="translate(20.878125 139.817587)scale(0.1 -0.1)">
                            <defs>
                                <path d="M 12.40625 8.296875
L 28.515625 8.296875
L 28.515625 63.921875
L 10.984375 60.40625
L 10.984375 69.390625
L 28.421875 72.90625
L 38.28125 72.90625
L 38.28125 8.296875
L 54.390625 8.296875
L 54.390625 0
L 12.40625 0
z
" id="DejaVuSans-49"/>
                            </defs>
                            <use xlink:href="#DejaVuSans-49"/>
                            <use x="63.623047" xlink:href="#DejaVuSans-48"/>
                            <use x="127.246094" xlink:href="#DejaVuSans-46"/>
                            <use x="159.033203" xlink:href="#DejaVuSans-48"/>
                        </g>
                    </g>
                </g>
                <g id="ytick_6">
                    <g id="line2d_11">
                        <g>
                            <use style="stroke:#000000;stroke-width:0.8;" x="50.14375" xlink:href="#m752f9cf213"
                                 y="99.407763"/>
                        </g>
                    </g>
                    <g id="text_12">
                        <!-- 12.5 -->
                        <g transform="translate(20.878125 103.206982)scale(0.1 -0.1)">
                            <use xlink:href="#DejaVuSans-49"/>
                            <use x="63.623047" xlink:href="#DejaVuSans-50"/>
                            <use x="127.246094" xlink:href="#DejaVuSans-46"/>
                            <use x="159.033203" xlink:href="#DejaVuSans-53"/>
                        </g>
                    </g>
                </g>
                <g id="ytick_7">
                    <g id="line2d_12">
                        <g>
                            <use style="stroke:#000000;stroke-width:0.8;" x="50.14375" xlink:href="#m752f9cf213"
                                 y="62.797158"/>
                        </g>
                    </g>
                    <g id="text_13">
                        <!-- 15.0 -->
                        <g transform="translate(20.878125 66.596377)scale(0.1 -0.1)">
                            <use xlink:href="#DejaVuSans-49"/>
                            <use x="63.623047" xlink:href="#DejaVuSans-53"/>
                            <use x="127.246094" xlink:href="#DejaVuSans-46"/>
                            <use x="159.033203" xlink:href="#DejaVuSans-48"/>
                        </g>
                    </g>
                </g>
                <g id="ytick_8">
                    <g id="line2d_13">
                        <g>
                            <use style="stroke:#000000;stroke-width:0.8;" x="50.14375" xlink:href="#m752f9cf213"
                                 y="26.186553"/>
                        </g>
                    </g>
                    <g id="text_14">
                        <!-- 17.5 -->
                        <g transform="translate(20.878125 29.985771)scale(0.1 -0.1)">
                            <use xlink:href="#DejaVuSans-49"/>
                            <use x="63.623047" xlink:href="#DejaVuSans-55"/>
                            <use x="127.246094" xlink:href="#DejaVuSans-46"/>
                            <use x="159.033203" xlink:href="#DejaVuSans-53"/>
                        </g>
                    </g>
                </g>
                <g id="text_15">
                    <!-- Training Loss -->
                    <g transform="translate(14.798438 190.500156)rotate(-90)scale(0.1 -0.1)">
                        <defs>
                            <path d="M -0.296875 72.90625
L 61.375 72.90625
L 61.375 64.59375
L 35.5 64.59375
L 35.5 0
L 25.59375 0
L 25.59375 64.59375
L -0.296875 64.59375
z
" id="DejaVuSans-84"/>
                            <path d="M 41.109375 46.296875
Q 39.59375 47.171875 37.8125 47.578125
Q 36.03125 48 33.890625 48
Q 26.265625 48 22.1875 43.046875
Q 18.109375 38.09375 18.109375 28.8125
L 18.109375 0
L 9.078125 0
L 9.078125 54.6875
L 18.109375 54.6875
L 18.109375 46.1875
Q 20.953125 51.171875 25.484375 53.578125
Q 30.03125 56 36.53125 56
Q 37.453125 56 38.578125 55.875
Q 39.703125 55.765625 41.0625 55.515625
z
" id="DejaVuSans-114"/>
                            <path d="M 9.421875 54.6875
L 18.40625 54.6875
L 18.40625 0
L 9.421875 0
z
M 9.421875 75.984375
L 18.40625 75.984375
L 18.40625 64.59375
L 9.421875 64.59375
z
" id="DejaVuSans-105"/>
                            <path d="M 45.40625 27.984375
Q 45.40625 37.75 41.375 43.109375
Q 37.359375 48.484375 30.078125 48.484375
Q 22.859375 48.484375 18.828125 43.109375
Q 14.796875 37.75 14.796875 27.984375
Q 14.796875 18.265625 18.828125 12.890625
Q 22.859375 7.515625 30.078125 7.515625
Q 37.359375 7.515625 41.375 12.890625
Q 45.40625 18.265625 45.40625 27.984375
z
M 54.390625 6.78125
Q 54.390625 -7.171875 48.1875 -13.984375
Q 42 -20.796875 29.203125 -20.796875
Q 24.46875 -20.796875 20.265625 -20.09375
Q 16.0625 -19.390625 12.109375 -17.921875
L 12.109375 -9.1875
Q 16.0625 -11.328125 19.921875 -12.34375
Q 23.78125 -13.375 27.78125 -13.375
Q 36.625 -13.375 41.015625 -8.765625
Q 45.40625 -4.15625 45.40625 5.171875
L 45.40625 9.625
Q 42.625 4.78125 38.28125 2.390625
Q 33.9375 0 27.875 0
Q 17.828125 0 11.671875 7.65625
Q 5.515625 15.328125 5.515625 27.984375
Q 5.515625 40.671875 11.671875 48.328125
Q 17.828125 56 27.875 56
Q 33.9375 56 38.28125 53.609375
Q 42.625 51.21875 45.40625 46.390625
L 45.40625 54.6875
L 54.390625 54.6875
z
" id="DejaVuSans-103"/>
                            <path d="M 9.8125 72.90625
L 19.671875 72.90625
L 19.671875 8.296875
L 55.171875 8.296875
L 55.171875 0
L 9.8125 0
z
" id="DejaVuSans-76"/>
                            <path d="M 30.609375 48.390625
Q 23.390625 48.390625 19.1875 42.75
Q 14.984375 37.109375 14.984375 27.296875
Q 14.984375 17.484375 19.15625 11.84375
Q 23.34375 6.203125 30.609375 6.203125
Q 37.796875 6.203125 41.984375 11.859375
Q 46.1875 17.53125 46.1875 27.296875
Q 46.1875 37.015625 41.984375 42.703125
Q 37.796875 48.390625 30.609375 48.390625
z
M 30.609375 56
Q 42.328125 56 49.015625 48.375
Q 55.71875 40.765625 55.71875 27.296875
Q 55.71875 13.875 49.015625 6.21875
Q 42.328125 -1.421875 30.609375 -1.421875
Q 18.84375 -1.421875 12.171875 6.21875
Q 5.515625 13.875 5.515625 27.296875
Q 5.515625 40.765625 12.171875 48.375
Q 18.84375 56 30.609375 56
z
" id="DejaVuSans-111"/>
                            <path d="M 44.28125 53.078125
L 44.28125 44.578125
Q 40.484375 46.53125 36.375 47.5
Q 32.28125 48.484375 27.875 48.484375
Q 21.1875 48.484375 17.84375 46.4375
Q 14.5 44.390625 14.5 40.28125
Q 14.5 37.15625 16.890625 35.375
Q 19.28125 33.59375 26.515625 31.984375
L 29.59375 31.296875
Q 39.15625 29.25 43.1875 25.515625
Q 47.21875 21.78125 47.21875 15.09375
Q 47.21875 7.46875 41.1875 3.015625
Q 35.15625 -1.421875 24.609375 -1.421875
Q 20.21875 -1.421875 15.453125 -0.5625
Q 10.6875 0.296875 5.421875 2
L 5.421875 11.28125
Q 10.40625 8.6875 15.234375 7.390625
Q 20.0625 6.109375 24.8125 6.109375
Q 31.15625 6.109375 34.5625 8.28125
Q 37.984375 10.453125 37.984375 14.40625
Q 37.984375 18.0625 35.515625 20.015625
Q 33.0625 21.96875 24.703125 23.78125
L 21.578125 24.515625
Q 13.234375 26.265625 9.515625 29.90625
Q 5.8125 33.546875 5.8125 39.890625
Q 5.8125 47.609375 11.28125 51.796875
Q 16.75 56 26.8125 56
Q 31.78125 56 36.171875 55.265625
Q 40.578125 54.546875 44.28125 53.078125
z
" id="DejaVuSans-115"/>
                        </defs>
                        <use xlink:href="#DejaVuSans-84"/>
                        <use x="46.333984" xlink:href="#DejaVuSans-114"/>
                        <use x="87.447266" xlink:href="#DejaVuSans-97"/>
                        <use x="148.726562" xlink:href="#DejaVuSans-105"/>
                        <use x="176.509766" xlink:href="#DejaVuSans-110"/>
                        <use x="239.888672" xlink:href="#DejaVuSans-105"/>
                        <use x="267.671875" xlink:href="#DejaVuSans-110"/>
                        <use x="331.050781" xlink:href="#DejaVuSans-103"/>
                        <use x="394.527344" xlink:href="#DejaVuSans-32"/>
                        <use x="426.314453" xlink:href="#DejaVuSans-76"/>
                        <use x="480.277344" xlink:href="#DejaVuSans-111"/>
                        <use x="541.458984" xlink:href="#DejaVuSans-115"/>
                        <use x="593.558594" xlink:href="#DejaVuSans-115"/>
                    </g>
                </g>
            </g>
            <g id="line2d_14">
                <path clip-path="url(#pa09c3ac7d8)" d="M 67.437138 34.67267
L 67.834688 38.533861
L 68.232237 45.050014
L 68.629786 45.11962
L 69.027335 49.710749
L 69.822433 51.265817
L 70.219983 54.17113
L 70.617532 54.066401
L 71.015081 59.508594
L 71.41263 56.984199
L 72.207728 65.656705
L 73.002827 66.614929
L 73.400376 71.641918
L 73.797925 72.371996
L 74.195474 79.616789
L 74.593023 76.386393
L 74.990572 74.644043
L 75.785671 81.632785
L 76.18322 80.162532
L 76.580769 86.955333
L 77.375867 89.307097
L 77.773417 94.569969
L 78.170966 93.995736
L 78.568515 96.052848
L 78.966064 99.610058
L 79.363613 96.707831
L 79.761162 102.846194
L 80.158712 100.25366
L 80.556261 100.116194
L 80.95381 100.992271
L 81.351359 100.511246
L 81.748908 102.937824
L 82.146457 111.37076
L 82.544006 114.705746
L 82.941556 108.662658
L 83.339105 114.450115
L 83.736654 109.673771
L 84.134203 119.14948
L 84.531752 118.879786
L 84.929301 117.69181
L 85.326851 113.547755
L 86.121949 125.961485
L 86.519498 127.153678
L 86.917047 123.988643
L 87.314596 126.514085
L 88.109695 128.344378
L 88.904793 131.438076
L 89.302342 132.071846
L 89.699891 129.943061
L 90.097441 134.25317
L 90.49499 135.67013
L 90.892539 138.195922
L 91.290088 138.436637
L 92.085186 136.761658
L 92.482735 136.84252
L 92.880285 144.465968
L 93.277834 143.806026
L 93.675383 142.785263
L 94.072932 142.733213
L 94.470481 143.003885
L 94.86803 146.958884
L 95.26558 146.339513
L 95.663129 149.933873
L 96.060678 149.247801
L 96.458227 155.502499
L 96.855776 152.022198
L 97.253325 155.229495
L 97.650875 154.023754
L 98.048424 160.847113
L 98.445973 154.634439
L 99.241071 159.379765
L 99.63862 157.50305
L 100.036169 158.688218
L 100.433719 161.905459
L 100.831268 159.639208
L 101.228817 166.293329
L 101.626366 162.706371
L 102.023915 163.335449
L 102.421464 164.508314
L 102.819014 170.558266
L 103.216563 166.77286
L 104.011661 171.58641
L 104.40921 172.279562
L 104.806759 169.941073
L 105.204309 170.386863
L 105.601858 172.92477
L 105.999407 177.196361
L 106.396956 176.993158
L 106.794505 173.087458
L 107.192054 180.184806
L 107.589604 176.510107
L 107.987153 181.903504
L 108.384702 181.215882
L 108.782251 179.43123
L 109.1798 186.689562
L 109.577349 184.2423
L 109.974898 186.551084
L 110.769997 183.706885
L 111.167546 187.986102
L 111.962644 186.358048
L 112.360193 188.235057
L 112.757743 187.591224
L 113.155292 191.853808
L 113.552841 194.33023
L 113.95039 192.570918
L 114.347939 189.910852
L 114.745488 190.007719
L 115.143038 193.303182
L 115.540587 201.019
L 115.938136 198.414881
L 116.335685 194.270142
L 116.733234 197.338911
L 117.130783 198.178698
L 117.528333 202.627739
L 117.925882 200.627698
L 118.323431 194.930105
L 118.72098 202.441365
L 119.118529 202.665014
L 119.516078 203.278973
L 119.913627 205.290347
L 120.311177 204.487423
L 120.708726 205.216642
L 121.106275 208.036498
L 121.503824 208.443456
L 121.901373 207.388854
L 122.298922 206.740399
L 122.696472 207.89103
L 123.094021 210.387759
L 123.49157 209.323457
L 123.889119 214.79875
L 124.286668 212.457056
L 124.684217 213.453302
L 125.081767 218.735028
L 125.479316 215.592994
L 125.876865 217.314486
L 126.274414 217.167803
L 126.671963 216.302005
L 127.069512 218.308037
L 127.467061 216.115149
L 127.864611 217.249468
L 128.26216 216.49502
L 128.659709 217.216606
L 129.057258 218.440593
L 129.454807 218.404596
L 129.852356 222.177377
L 130.249906 220.74157
L 130.647455 223.701978
L 131.045004 220.374967
L 131.442553 223.048
L 131.840102 226.49826
L 132.237651 227.055319
L 132.635201 223.569031
L 133.03275 226.743109
L 133.430299 227.151394
L 133.827848 228.338189
L 134.225397 227.063671
L 134.622946 227.491416
L 135.020496 229.418632
L 135.418045 230.665397
L 135.815594 231.11177
L 136.213143 231.164068
L 136.610692 230.611507
L 137.008241 233.343486
L 137.40579 232.587425
L 137.80334 235.718566
L 138.200889 230.7437
L 138.598438 238.307898
L 138.995987 235.094858
L 139.393536 238.021134
L 139.791085 234.225579
L 140.586184 238.819334
L 140.983733 238.540922
L 141.381282 235.623905
L 141.778831 238.884586
L 142.17638 237.447285
L 142.57393 240.809675
L 142.971479 239.266726
L 143.369028 238.293636
L 143.766577 242.819778
L 144.164126 243.877446
L 144.561675 242.2865
L 144.959224 239.032969
L 145.356774 244.460789
L 145.754323 240.898868
L 146.151872 244.804457
L 146.549421 243.976754
L 146.94697 246.508299
L 147.344519 246.864498
L 147.742069 245.617492
L 148.139618 247.66959
L 148.537167 246.956864
L 148.934716 249.654994
L 149.332265 248.565366
L 149.729814 250.593782
L 150.127364 247.504832
L 150.524913 250.772157
L 150.922462 252.227701
L 151.320011 249.377738
L 152.115109 252.37231
L 152.512659 251.444985
L 152.910208 253.525221
L 153.307757 252.740257
L 153.705306 254.140493
L 154.102855 253.741261
L 154.500404 255.238428
L 154.897953 253.547656
L 155.295503 252.462795
L 155.693052 253.714207
L 156.090601 252.750533
L 156.48815 254.714964
L 156.885699 256.06574
L 157.283248 256.207572
L 157.680798 255.209295
L 158.078347 255.063719
L 158.475896 255.757461
L 158.873445 257.101242
L 159.270994 258.882792
L 159.668543 261.257315
L 160.066093 257.961419
L 160.463642 259.920016
L 160.861191 259.065645
L 161.25874 258.489719
L 161.656289 259.877967
L 162.053838 259.652979
L 162.451388 260.081
L 163.246486 258.104183
L 163.644035 260.842297
L 164.041584 261.338065
L 164.439133 260.399748
L 165.631781 262.539091
L 166.02933 262.765098
L 166.426879 263.213078
L 166.824428 260.485102
L 167.221977 264.049274
L 167.619527 263.179199
L 168.017076 263.007454
L 168.414625 265.3248
L 168.812174 262.056793
L 169.209723 264.693702
L 169.607272 264.970595
L 170.004822 263.902258
L 170.402371 264.747568
L 170.79992 263.735416
L 171.197469 264.607939
L 171.595018 264.745339
L 171.992567 266.319435
L 172.390116 265.178063
L 172.787666 266.687522
L 173.185215 267.463646
L 173.582764 265.821914
L 173.980313 268.519599
L 174.377862 266.547323
L 174.775411 267.18048
L 175.172961 268.777989
L 175.57051 266.66406
L 175.968059 267.211187
L 176.763157 267.768818
L 177.160706 267.880755
L 177.558256 267.022914
L 177.955805 267.645217
L 178.353354 269.672547
L 178.750903 269.393627
L 179.148452 268.108336
L 179.546001 270.165733
L 179.943551 268.399367
L 180.738649 269.984616
L 181.136198 268.02251
L 181.533747 270.007394
L 182.328845 269.85797
L 182.726395 269.131465
L 183.123944 269.515279
L 183.521493 269.13411
L 183.919042 270.765599
L 184.316591 269.743569
L 184.71414 270.727086
L 185.11169 270.615026
L 185.509239 269.368411
L 185.906788 271.636668
L 186.304337 271.10995
L 186.701886 271.505232
L 187.099435 270.056857
L 187.496985 270.352535
L 187.894534 271.519428
L 188.292083 270.083094
L 188.689632 271.826336
L 189.087181 271.685001
L 189.48473 271.029806
L 189.882279 272.868177
L 190.279829 270.738077
L 190.677378 272.339771
L 191.074927 271.319415
L 191.472476 271.41427
L 191.870025 271.761774
L 192.267574 271.137117
L 192.665124 271.386748
L 193.062673 271.903207
L 193.460222 271.614072
L 193.857771 272.320095
L 195.050419 272.988932
L 195.845517 272.846889
L 196.243066 273.161229
L 196.640615 273.661846
L 197.038164 272.642717
L 197.435714 272.150149
L 197.833263 273.45612
L 198.230812 273.082525
L 198.628361 273.645484
L 199.02591 273.464594
L 199.423459 272.901605
L 199.821008 274.258545
L 200.218558 273.655541
L 200.616107 272.39956
L 201.013656 274.633442
L 201.411205 273.937315
L 201.808754 273.694575
L 202.206303 273.870742
L 202.603853 274.893106
L 203.001402 274.100608
L 203.398951 273.817307
L 203.7965 275.343528
L 204.194049 274.292876
L 204.591598 274.329924
L 204.989148 274.899167
L 205.386697 273.614529
L 205.784246 275.119369
L 206.181795 275.123722
L 206.579344 275.257221
L 206.976893 275.967552
L 207.374443 276.051077
L 207.771992 275.103039
L 208.169541 275.949879
L 208.56709 276.398375
L 208.964639 275.251617
L 209.362188 275.85446
L 209.759737 275.993487
L 210.157287 274.801779
L 210.554836 274.977097
L 210.952385 275.913034
L 211.349934 276.37749
L 211.747483 276.329962
L 212.145032 276.10898
L 212.542582 276.449237
L 212.940131 275.777705
L 213.33768 276.11835
L 213.735229 275.820092
L 214.132778 277.179767
L 214.530327 276.489416
L 214.927877 276.685502
L 215.325426 276.722529
L 215.722975 277.210572
L 216.120524 276.757138
L 216.518073 276.654669
L 216.915622 277.595045
L 217.313171 276.822197
L 217.710721 277.055426
L 218.10827 276.498198
L 218.505819 277.111441
L 219.300917 277.782008
L 219.698466 277.251373
L 220.096016 277.230784
L 220.493565 278.053994
L 220.891114 277.362233
L 221.288663 277.844574
L 221.686212 277.062634
L 222.083761 277.899442
L 222.481311 276.698296
L 222.87886 277.785287
L 223.276409 277.196
L 223.673958 277.215866
L 224.071507 277.636321
L 224.469056 277.012753
L 225.264155 277.434756
L 225.661704 278.313203
L 226.059253 278.157625
L 226.456802 276.701265
L 226.854351 277.863856
L 227.2519 277.745098
L 227.64945 277.395845
L 228.046999 277.613718
L 228.444548 278.1842
L 228.842097 277.966928
L 229.239646 277.021008
L 230.432294 278.483491
L 230.829843 277.688683
L 231.227392 278.414937
L 231.624941 278.553224
L 232.02249 278.257486
L 232.42004 278.172877
L 232.817589 278.407148
L 233.612687 278.543859
L 234.010236 278.710356
L 234.407785 278.569106
L 234.805334 278.592382
L 235.202884 277.930348
L 235.600433 278.921378
L 236.395531 278.198883
L 236.79308 278.448792
L 237.190629 278.955962
L 237.588179 278.164998
L 237.985728 278.845412
L 238.383277 279.269996
L 238.780826 278.601045
L 239.575924 279.313138
L 239.973474 278.886339
L 240.371023 279.209538
L 240.768572 278.428144
L 241.56367 279.306239
L 241.961219 278.833221
L 242.358769 278.93406
L 242.756318 278.860113
L 243.153867 279.064934
L 243.551416 278.936715
L 243.948965 279.521153
L 244.744063 278.973933
L 245.141613 279.341191
L 245.539162 279.490152
L 246.33426 279.311855
L 246.731809 279.619926
L 247.526908 279.219428
L 247.924457 279.731492
L 248.322006 279.880226
L 248.719555 279.554272
L 249.117104 279.654554
L 249.514653 279.495296
L 249.912203 279.92417
L 250.309752 279.413152
L 251.10485 279.733162
L 251.502399 279.759346
L 251.899948 279.446431
L 252.297498 279.524932
L 252.695047 279.802907
L 253.887694 279.257548
L 254.285243 279.719161
L 254.682792 279.788118
L 255.080342 279.397154
L 255.477891 279.748278
L 255.87544 279.675228
L 256.272989 279.85716
L 256.670538 279.142856
L 257.465637 279.647087
L 257.863186 279.836052
L 258.260735 279.472677
L 259.055833 279.310632
L 259.453382 279.591174
L 260.248481 279.481681
L 261.043579 279.965112
L 261.838677 279.991786
L 264.223972 280.011246
L 264.621521 279.870086
L 265.019071 280.356597
L 265.41662 279.992866
L 267.006816 279.972051
L 267.404366 280.317232
L 267.801915 279.994222
L 268.199464 280.183533
L 268.597013 279.235203
L 268.994562 280.239338
L 269.392111 279.278874
L 269.789661 279.61811
L 270.18721 279.438393
L 270.584759 280.180926
L 270.982308 280.104206
L 271.379857 279.588733
L 271.777406 279.911922
L 272.174955 280.070869
L 272.572505 279.923096
L 272.970054 280.103272
L 273.367603 279.960861
L 273.765152 279.590376
L 274.162701 280.275085
L 274.56025 279.970803
L 274.9578 280.29169
L 275.355349 280.213269
L 275.752898 279.960716
L 276.547996 280.297045
L 276.945545 279.971174
L 277.343095 280.266103
L 277.740644 280.236117
L 278.138193 280.445291
L 278.535742 280.481555
L 278.933291 279.960623
L 279.33084 280.655369
L 279.728389 280.429449
L 280.125939 280.865641
L 280.523488 280.414976
L 281.318586 280.549321
L 281.716135 280.42088
L 282.113684 280.660097
L 282.511234 280.485266
L 283.306332 280.600977
L 283.703881 280.374443
L 284.10143 280.619086
L 284.896529 280.817237
L 285.294078 280.346332
L 286.486725 280.468948
L 286.884274 280.851995
L 287.281824 280.61273
L 288.474471 280.81796
L 288.87202 280.666075
L 289.269569 280.299345
L 289.667118 280.767441
L 290.462217 280.267623
L 291.257315 280.73137
L 291.654864 280.604654
L 292.052413 280.825117
L 292.847512 280.680205
L 293.245061 280.808018
L 294.040159 280.798573
L 294.437708 280.601599
L 294.835258 280.797413
L 295.232807 280.542183
L 295.630356 280.462624
L 296.027905 280.710701
L 296.425454 280.757176
L 296.823003 280.687775
L 297.220553 280.829526
L 297.618102 280.486885
L 298.015651 280.793277
L 298.4132 280.536549
L 298.810749 280.735173
L 299.208298 280.687188
L 299.605847 280.983907
L 300.003397 280.952909
L 300.400946 280.745509
L 301.991142 280.905835
L 302.388692 281.159903
L 303.18379 280.906381
L 303.581339 281.060439
L 303.978888 280.503441
L 304.773987 281.013764
L 305.171536 281.026319
L 305.966634 280.814713
L 306.761732 280.629393
L 307.159281 280.984846
L 307.556831 280.793615
L 307.95438 280.305052
L 308.351929 280.991001
L 308.749478 280.74714
L 309.147027 280.815084
L 309.544576 280.342253
L 309.942126 280.899245
L 310.339675 280.621621
L 310.737224 280.926652
L 311.134773 280.534965
L 311.532322 280.58029
L 311.929871 280.826617
L 312.327421 280.905578
L 312.72497 280.632704
L 313.520068 281.012163
L 313.917617 280.856922
L 314.712716 281.006051
L 315.110265 280.815001
L 315.507814 280.965781
L 315.905363 280.917937
L 316.302912 280.501419
L 317.09801 281.182285
L 317.893109 280.767983
L 318.290658 281.050791
L 318.688207 281.191037
L 319.085756 280.803465
L 319.483305 281.1577
L 319.880855 280.808307
L 320.675953 281.030057
L 321.073502 280.934254
L 321.471051 281.055679
L 322.26615 281.00314
L 322.663699 281.098687
L 323.061248 280.989982
L 323.458797 281.320262
L 323.856346 281.019952
L 324.253895 281.290399
L 324.651444 280.45467
L 325.048994 281.21075
L 325.446543 280.847642
L 325.844092 280.74454
L 326.241641 280.969464
L 326.63919 280.655764
L 327.036739 280.90848
L 327.831838 280.888682
L 328.229387 281.049082
L 329.024485 280.872124
L 329.422034 281.166093
L 330.217133 281.034678
L 330.614682 281.218939
L 331.012231 281.076273
L 331.40978 280.783698
L 331.807329 281.220116
L 332.204879 280.852995
L 332.602428 281.242403
L 332.999977 281.295692
L 333.795075 280.850889
L 334.987723 281.353804
L 335.385272 280.985701
L 335.782821 281.183003
L 336.577919 281.027202
L 336.975468 281.409957
L 337.373018 281.197822
L 337.770567 281.414931
L 338.168116 281.101587
L 338.565665 281.3249
L 338.963214 280.903774
L 339.360763 281.397706
L 339.758313 281.114432
L 340.155862 281.258954
L 340.553411 281.050372
L 340.95096 281.213598
L 343.336255 281.352296
L 343.733804 281.191472
L 344.131353 281.289992
L 345.324001 281.295779
L 345.72155 281.379272
L 346.119099 281.206975
L 346.914197 281.534713
L 347.311747 281.399949
L 348.106845 281.399806
L 348.504394 281.582621
L 348.901943 281.345807
L 349.299492 281.545131
L 350.094591 281.271891
L 350.49214 281.311884
L 350.889689 281.558389
L 352.082336 281.542193
L 352.479886 281.405452
L 353.274984 281.554058
L 353.672533 281.41442
L 354.070082 281.521948
L 354.467631 281.429467
L 354.865181 281.557884
L 355.660279 281.474727
L 356.455377 281.493944
L 357.250476 281.503107
L 359.238221 281.508359
L 359.635771 281.446228
L 360.03332 281.668313
L 360.430869 281.499743
L 360.828418 281.632346
L 361.225967 281.453888
L 361.623516 281.70527
L 362.021065 281.320276
L 362.418615 281.623453
L 362.816164 281.465481
L 363.213713 281.465569
L 363.611262 281.587117
L 364.008811 281.395237
L 364.40636 281.360155
L 365.201459 281.602727
L 366.394106 281.192236
L 366.791655 281.595969
L 367.189205 281.590957
L 367.586754 281.248965
L 367.984303 281.640488
L 368.381852 281.191389
L 368.779401 281.570712
L 369.5745 281.330635
L 369.972049 281.333396
L 370.767147 281.587967
L 371.164696 281.655377
L 371.562245 281.528834
L 372.357344 281.620992
L 372.754893 281.287225
L 373.94754 281.627711
L 374.742639 281.535942
L 376.332835 281.682256
L 376.730384 281.584827
L 377.127934 281.676706
L 377.923032 281.586808
L 378.71813 281.76358
L 379.115679 281.316323
L 379.513228 281.674333
L 380.705876 281.538476
L 381.103425 281.661591
L 381.500974 281.530582
L 381.898523 281.669944
L 383.48872 281.176827
L 383.886269 281.557537
L 384.283818 281.288108
L 384.681368 281.357127
L 385.476466 281.302587
L 385.874015 280.927929
L 387.066663 280.916151
L 387.464212 279.842634
L 387.861761 281.122001
L 388.25931 280.073369
L 388.656859 280.888625
L 389.054408 280.835091
L 389.451957 280.573091
L 389.849507 280.822578
L 390.247056 280.671878
L 390.644605 280.679269
L 391.042154 278.938526
L 391.439703 281.072882
L 391.837252 280.493865
L 392.234802 280.813618
L 392.632351 279.486878
L 393.0299 280.277631
L 393.427449 280.039954
L 393.824998 280.535642
L 394.222547 279.638449
L 394.620097 279.979672
L 395.017646 280.547339
L 395.415195 280.446196
L 395.812744 280.491505
L 396.210293 280.14692
L 396.607842 280.535462
L 397.005391 280.502282
L 397.402941 280.789753
L 397.80049 280.757022
L 398.198039 280.905372
L 398.595588 280.608658
L 398.993137 281.008478
L 399.390686 281.189663
L 399.788236 280.795993
L 400.185785 281.254574
L 400.583334 281.354823
L 400.980883 281.222432
L 401.378432 280.621778
L 401.775981 281.391237
L 402.173531 281.456114
L 402.57108 281.300576
L 402.968629 280.878747
L 403.366178 281.11659
L 403.763727 281.187468
L 404.161276 280.452053
L 404.558826 281.309612
L 404.956375 280.737021
L 405.353924 280.966173
L 405.751473 280.905783
L 406.149022 281.044839
L 406.546571 280.97163
L 406.94412 281.070496
L 407.34167 280.62127
L 407.739219 280.979144
L 408.136768 281.561006
L 408.534317 281.322144
L 409.726965 281.052407
L 410.124514 281.325094
L 410.919612 281.529914
L 411.317161 281.519032
L 411.71471 281.383432
L 413.304907 281.626379
L 413.304907 281.626379
" style="fill:none;stroke:#1f77b4;stroke-linecap:square;stroke-width:1.5;"/>
            </g>
            <g id="patch_3">
                <path d="M 50.14375 294.118125
L 50.14375 22.318125
" style="fill:none;stroke:#000000;stroke-linecap:square;stroke-linejoin:miter;stroke-width:0.8;"/>
            </g>
            <g id="patch_4">
                <path d="M 430.598295 294.118125
L 430.598295 22.318125
" style="fill:none;stroke:#000000;stroke-linecap:square;stroke-linejoin:miter;stroke-width:0.8;"/>
            </g>
            <g id="patch_5">
                <path d="M 50.14375 294.118125
L 430.598295 294.118125
" style="fill:none;stroke:#000000;stroke-linecap:square;stroke-linejoin:miter;stroke-width:0.8;"/>
            </g>
            <g id="patch_6">
                <path d="M 50.14375 22.318125
L 430.598295 22.318125
" style="fill:none;stroke:#000000;stroke-linecap:square;stroke-linejoin:miter;stroke-width:0.8;"/>
            </g>
            <g id="text_16">
                <!-- Training Accuracy -->
                <g transform="translate(187.39946 16.318125)scale(0.12 -0.12)">
                    <defs>
                        <path d="M 34.1875 63.1875
L 20.796875 26.90625
L 47.609375 26.90625
z
M 28.609375 72.90625
L 39.796875 72.90625
L 67.578125 0
L 57.328125 0
L 50.6875 18.703125
L 17.828125 18.703125
L 11.1875 0
L 0.78125 0
z
" id="DejaVuSans-65"/>
                        <path d="M 8.5 21.578125
L 8.5 54.6875
L 17.484375 54.6875
L 17.484375 21.921875
Q 17.484375 14.15625 20.5 10.265625
Q 23.53125 6.390625 29.59375 6.390625
Q 36.859375 6.390625 41.078125 11.03125
Q 45.3125 15.671875 45.3125 23.6875
L 45.3125 54.6875
L 54.296875 54.6875
L 54.296875 0
L 45.3125 0
L 45.3125 8.40625
Q 42.046875 3.421875 37.71875 1
Q 33.40625 -1.421875 27.6875 -1.421875
Q 18.265625 -1.421875 13.375 4.4375
Q 8.5 10.296875 8.5 21.578125
z
M 31.109375 56
z
" id="DejaVuSans-117"/>
                        <path d="M 32.171875 -5.078125
Q 28.375 -14.84375 24.75 -17.8125
Q 21.140625 -20.796875 15.09375 -20.796875
L 7.90625 -20.796875
L 7.90625 -13.28125
L 13.1875 -13.28125
Q 16.890625 -13.28125 18.9375 -11.515625
Q 21 -9.765625 23.484375 -3.21875
L 25.09375 0.875
L 2.984375 54.6875
L 12.5 54.6875
L 29.59375 11.921875
L 46.6875 54.6875
L 56.203125 54.6875
z
" id="DejaVuSans-121"/>
                    </defs>
                    <use xlink:href="#DejaVuSans-84"/>
                    <use x="46.333984" xlink:href="#DejaVuSans-114"/>
                    <use x="87.447266" xlink:href="#DejaVuSans-97"/>
                    <use x="148.726562" xlink:href="#DejaVuSans-105"/>
                    <use x="176.509766" xlink:href="#DejaVuSans-110"/>
                    <use x="239.888672" xlink:href="#DejaVuSans-105"/>
                    <use x="267.671875" xlink:href="#DejaVuSans-110"/>
                    <use x="331.050781" xlink:href="#DejaVuSans-103"/>
                    <use x="394.527344" xlink:href="#DejaVuSans-32"/>
                    <use x="426.314453" xlink:href="#DejaVuSans-65"/>
                    <use x="492.972656" xlink:href="#DejaVuSans-99"/>
                    <use x="547.953125" xlink:href="#DejaVuSans-99"/>
                    <use x="602.933594" xlink:href="#DejaVuSans-117"/>
                    <use x="666.3125" xlink:href="#DejaVuSans-114"/>
                    <use x="707.425781" xlink:href="#DejaVuSans-97"/>
                    <use x="768.705078" xlink:href="#DejaVuSans-99"/>
                    <use x="823.685547" xlink:href="#DejaVuSans-121"/>
                </g>
            </g>
        </g>
        <g id="axes_2">
            <g id="patch_7">
                <path d="M 506.689205 294.118125
L 887.14375 294.118125
L 887.14375 22.318125
L 506.689205 22.318125
z
" style="fill:#ffffff;"/>
            </g>
            <g id="matplotlib.axis_3">
                <g id="xtick_6">
                    <g id="line2d_15">
                        <g>
                            <use style="stroke:#000000;stroke-width:0.8;" x="523.585044" xlink:href="#m078e677783"
                                 y="294.118125"/>
                        </g>
                    </g>
                    <g id="text_17">
                        <!-- 0 -->
                        <g transform="translate(520.403794 308.716563)scale(0.1 -0.1)">
                            <use xlink:href="#DejaVuSans-48"/>
                        </g>
                    </g>
                </g>
                <g id="xtick_7">
                    <g id="line2d_16">
                        <g>
                            <use style="stroke:#000000;stroke-width:0.8;" x="603.094876" xlink:href="#m078e677783"
                                 y="294.118125"/>
                        </g>
                    </g>
                    <g id="text_18">
                        <!-- 200 -->
                        <g transform="translate(593.551126 308.716563)scale(0.1 -0.1)">
                            <use xlink:href="#DejaVuSans-50"/>
                            <use x="63.623047" xlink:href="#DejaVuSans-48"/>
                            <use x="127.246094" xlink:href="#DejaVuSans-48"/>
                        </g>
                    </g>
                </g>
                <g id="xtick_8">
                    <g id="line2d_17">
                        <g>
                            <use style="stroke:#000000;stroke-width:0.8;" x="682.604708" xlink:href="#m078e677783"
                                 y="294.118125"/>
                        </g>
                    </g>
                    <g id="text_19">
                        <!-- 400 -->
                        <g transform="translate(673.060958 308.716563)scale(0.1 -0.1)">
                            <use xlink:href="#DejaVuSans-52"/>
                            <use x="63.623047" xlink:href="#DejaVuSans-48"/>
                            <use x="127.246094" xlink:href="#DejaVuSans-48"/>
                        </g>
                    </g>
                </g>
                <g id="xtick_9">
                    <g id="line2d_18">
                        <g>
                            <use style="stroke:#000000;stroke-width:0.8;" x="762.114539" xlink:href="#m078e677783"
                                 y="294.118125"/>
                        </g>
                    </g>
                    <g id="text_20">
                        <!-- 600 -->
                        <g transform="translate(752.570789 308.716563)scale(0.1 -0.1)">
                            <use xlink:href="#DejaVuSans-54"/>
                            <use x="63.623047" xlink:href="#DejaVuSans-48"/>
                            <use x="127.246094" xlink:href="#DejaVuSans-48"/>
                        </g>
                    </g>
                </g>
                <g id="xtick_10">
                    <g id="line2d_19">
                        <g>
                            <use style="stroke:#000000;stroke-width:0.8;" x="841.624371" xlink:href="#m078e677783"
                                 y="294.118125"/>
                        </g>
                    </g>
                    <g id="text_21">
                        <!-- 800 -->
                        <g transform="translate(832.080621 308.716563)scale(0.1 -0.1)">
                            <use xlink:href="#DejaVuSans-56"/>
                            <use x="63.623047" xlink:href="#DejaVuSans-48"/>
                            <use x="127.246094" xlink:href="#DejaVuSans-48"/>
                        </g>
                    </g>
                </g>
                <g id="text_22">
                    <!-- Batch Index -->
                    <g transform="translate(667.188352 322.394687)scale(0.1 -0.1)">
                        <use xlink:href="#DejaVuSans-66"/>
                        <use x="68.603516" xlink:href="#DejaVuSans-97"/>
                        <use x="129.882812" xlink:href="#DejaVuSans-116"/>
                        <use x="169.091797" xlink:href="#DejaVuSans-99"/>
                        <use x="224.072266" xlink:href="#DejaVuSans-104"/>
                        <use x="287.451172" xlink:href="#DejaVuSans-32"/>
                        <use x="319.238281" xlink:href="#DejaVuSans-73"/>
                        <use x="348.730469" xlink:href="#DejaVuSans-110"/>
                        <use x="412.109375" xlink:href="#DejaVuSans-100"/>
                        <use x="475.585938" xlink:href="#DejaVuSans-101"/>
                        <use x="535.359375" xlink:href="#DejaVuSans-120"/>
                    </g>
                </g>
            </g>
            <g id="matplotlib.axis_4">
                <g id="ytick_9">
                    <g id="line2d_20">
                        <g>
                            <use style="stroke:#000000;stroke-width:0.8;" x="506.689205" xlink:href="#m752f9cf213"
                                 y="281.76358"/>
                        </g>
                    </g>
                    <g id="text_23">
                        <!-- 0 -->
                        <g transform="translate(493.326705 285.562798)scale(0.1 -0.1)">
                            <use xlink:href="#DejaVuSans-48"/>
                        </g>
                    </g>
                </g>
                <g id="ytick_10">
                    <g id="line2d_21">
                        <g>
                            <use style="stroke:#000000;stroke-width:0.8;" x="506.689205" xlink:href="#m752f9cf213"
                                 y="232.345398"/>
                        </g>
                    </g>
                    <g id="text_24">
                        <!-- 20 -->
                        <g transform="translate(486.964205 236.144616)scale(0.1 -0.1)">
                            <use xlink:href="#DejaVuSans-50"/>
                            <use x="63.623047" xlink:href="#DejaVuSans-48"/>
                        </g>
                    </g>
                </g>
                <g id="ytick_11">
                    <g id="line2d_22">
                        <g>
                            <use style="stroke:#000000;stroke-width:0.8;" x="506.689205" xlink:href="#m752f9cf213"
                                 y="182.927216"/>
                        </g>
                    </g>
                    <g id="text_25">
                        <!-- 40 -->
                        <g transform="translate(486.964205 186.726435)scale(0.1 -0.1)">
                            <use xlink:href="#DejaVuSans-52"/>
                            <use x="63.623047" xlink:href="#DejaVuSans-48"/>
                        </g>
                    </g>
                </g>
                <g id="ytick_12">
                    <g id="line2d_23">
                        <g>
                            <use style="stroke:#000000;stroke-width:0.8;" x="506.689205" xlink:href="#m752f9cf213"
                                 y="133.509034"/>
                        </g>
                    </g>
                    <g id="text_26">
                        <!-- 60 -->
                        <g transform="translate(486.964205 137.308253)scale(0.1 -0.1)">
                            <use xlink:href="#DejaVuSans-54"/>
                            <use x="63.623047" xlink:href="#DejaVuSans-48"/>
                        </g>
                    </g>
                </g>
                <g id="ytick_13">
                    <g id="line2d_24">
                        <g>
                            <use style="stroke:#000000;stroke-width:0.8;" x="506.689205" xlink:href="#m752f9cf213"
                                 y="84.090852"/>
                        </g>
                    </g>
                    <g id="text_27">
                        <!-- 80 -->
                        <g transform="translate(486.964205 87.890071)scale(0.1 -0.1)">
                            <use xlink:href="#DejaVuSans-56"/>
                            <use x="63.623047" xlink:href="#DejaVuSans-48"/>
                        </g>
                    </g>
                </g>
                <g id="ytick_14">
                    <g id="line2d_25">
                        <g>
                            <use style="stroke:#000000;stroke-width:0.8;" x="506.689205" xlink:href="#m752f9cf213"
                                 y="34.67267"/>
                        </g>
                    </g>
                    <g id="text_28">
                        <!-- 100 -->
                        <g transform="translate(480.601705 38.471889)scale(0.1 -0.1)">
                            <use xlink:href="#DejaVuSans-49"/>
                            <use x="63.623047" xlink:href="#DejaVuSans-48"/>
                            <use x="127.246094" xlink:href="#DejaVuSans-48"/>
                        </g>
                    </g>
                </g>
                <g id="text_29">
                    <!-- Accuracy -->
                    <g transform="translate(474.522017 181.04625)rotate(-90)scale(0.1 -0.1)">
                        <use xlink:href="#DejaVuSans-65"/>
                        <use x="66.658203" xlink:href="#DejaVuSans-99"/>
                        <use x="121.638672" xlink:href="#DejaVuSans-99"/>
                        <use x="176.619141" xlink:href="#DejaVuSans-117"/>
                        <use x="239.998047" xlink:href="#DejaVuSans-114"/>
                        <use x="281.111328" xlink:href="#DejaVuSans-97"/>
                        <use x="342.390625" xlink:href="#DejaVuSans-99"/>
                        <use x="397.371094" xlink:href="#DejaVuSans-121"/>
                    </g>
                </g>
            </g>
            <g id="line2d_26">
                <path clip-path="url(#pabf81ef888)" d="M 523.982593 281.76358
L 543.064953 281.76358
L 543.462502 277.902784
L 543.860051 281.76358
L 547.437993 281.76358
L 547.835543 277.902784
L 548.233092 281.76358
L 548.630641 281.76358
L 549.02819 277.902784
L 549.425739 281.76358
L 549.823288 277.902784
L 550.220837 281.76358
L 551.015936 281.76358
L 551.413485 277.902784
L 551.811034 281.76358
L 552.208583 274.041989
L 552.606132 281.76358
L 553.003682 277.902784
L 553.401231 281.76358
L 553.79878 277.902784
L 554.196329 270.181193
L 554.593878 270.181193
L 554.991427 281.76358
L 555.388977 281.76358
L 555.786526 274.041989
L 556.184075 281.76358
L 556.581624 281.76358
L 556.979173 277.902784
L 557.376722 277.902784
L 557.774272 270.181193
L 558.171821 277.902784
L 558.56937 274.041989
L 558.966919 274.041989
L 559.364468 277.902784
L 559.762017 277.902784
L 560.159566 281.76358
L 560.557116 274.041989
L 560.954665 274.041989
L 561.352214 277.902784
L 561.749763 274.041989
L 562.147312 281.76358
L 562.544861 274.041989
L 562.942411 270.181193
L 563.33996 270.181193
L 563.737509 258.598807
L 564.135058 277.902784
L 564.532607 262.459602
L 564.930156 274.041989
L 565.327706 270.181193
L 565.725255 254.738011
L 566.122804 258.598807
L 566.520353 266.320398
L 566.917902 254.738011
L 567.315451 266.320398
L 567.713 247.01642
L 568.508099 277.902784
L 568.905648 258.598807
L 569.303197 250.877216
L 569.700746 266.320398
L 570.098295 262.459602
L 570.495845 254.738011
L 570.893394 277.902784
L 571.290943 274.041989
L 571.688492 250.877216
L 572.086041 258.598807
L 572.48359 258.598807
L 572.88114 262.459602
L 573.278689 243.155625
L 573.676238 243.155625
L 574.073787 239.29483
L 574.471336 243.155625
L 574.868885 262.459602
L 575.266435 250.877216
L 575.663984 250.877216
L 576.061533 239.29483
L 576.459082 231.573239
L 576.856631 239.29483
L 577.25418 258.598807
L 577.651729 227.712443
L 578.049279 227.712443
L 578.446828 247.01642
L 578.844377 239.29483
L 579.241926 262.459602
L 579.639475 231.573239
L 580.037024 212.269261
L 580.434574 200.686875
L 580.832123 223.851648
L 581.229672 204.54767
L 581.627221 204.54767
L 582.02477 212.269261
L 582.422319 227.712443
L 582.819869 219.990852
L 583.217418 216.130057
L 583.614967 192.965284
L 584.012516 231.573239
L 584.410065 208.408466
L 584.807614 227.712443
L 585.205164 204.54767
L 585.602713 212.269261
L 586.000262 227.712443
L 586.397811 185.243693
L 586.79536 212.269261
L 587.192909 192.965284
L 587.590458 189.104489
L 587.988008 192.965284
L 588.385557 162.07892
L 588.783106 196.82608
L 589.180655 192.965284
L 589.578204 177.522102
L 589.975753 189.104489
L 590.373303 192.965284
L 590.770852 173.661307
L 591.168401 200.686875
L 591.56595 185.243693
L 591.963499 185.243693
L 592.361048 177.522102
L 592.758598 146.635739
L 593.156147 158.218125
L 593.553696 173.661307
L 593.951245 165.939716
L 594.348794 165.939716
L 594.746343 185.243693
L 595.143892 131.192557
L 595.541442 173.661307
L 595.938991 154.35733
L 596.33654 173.661307
L 596.734089 165.939716
L 597.131638 138.914148
L 597.529187 135.053352
L 597.926737 169.800511
L 598.324286 146.635739
L 598.721835 162.07892
L 599.119384 127.331761
L 599.516933 154.35733
L 599.914482 142.774943
L 600.312032 142.774943
L 600.709581 123.470966
L 601.10713 142.774943
L 601.504679 154.35733
L 601.902228 127.331761
L 602.299777 131.192557
L 602.697327 104.166989
L 603.094876 111.88858
L 603.492425 96.445398
L 603.889974 96.445398
L 604.287523 111.88858
L 604.685072 108.027784
L 605.082621 96.445398
L 605.480171 81.002216
L 605.87772 92.584602
L 606.275269 84.863011
L 606.672818 111.88858
L 607.070367 92.584602
L 607.467916 104.166989
L 607.865466 119.61017
L 608.263015 81.002216
L 608.660564 84.863011
L 609.058113 115.749375
L 609.455662 100.306193
L 609.853211 100.306193
L 610.250761 69.41983
L 610.64831 100.306193
L 611.443408 77.14142
L 611.840957 84.863011
L 612.238506 100.306193
L 612.636056 84.863011
L 613.033605 84.863011
L 613.431154 96.445398
L 613.828703 77.14142
L 614.226252 77.14142
L 614.623801 84.863011
L 615.02135 88.723807
L 615.4189 65.559034
L 615.816449 73.280625
L 616.213998 61.698239
L 616.611547 81.002216
L 617.009096 57.837443
L 617.804195 65.559034
L 618.201744 88.723807
L 618.599293 61.698239
L 618.996842 61.698239
L 619.394391 73.280625
L 619.79194 65.559034
L 620.18949 61.698239
L 620.587039 69.41983
L 620.984588 69.41983
L 621.382137 65.559034
L 621.779686 65.559034
L 622.177235 61.698239
L 622.574784 61.698239
L 622.972334 46.255057
L 623.369883 73.280625
L 623.767432 61.698239
L 624.164981 69.41983
L 624.56253 73.280625
L 624.960079 57.837443
L 625.357629 65.559034
L 625.755178 57.837443
L 626.152727 57.837443
L 626.550276 65.559034
L 626.947825 57.837443
L 627.742924 50.115852
L 628.140473 57.837443
L 628.538022 46.255057
L 628.935571 38.533466
L 629.33312 50.115852
L 629.730669 42.394261
L 630.128219 53.976648
L 630.525768 50.115852
L 630.923317 57.837443
L 631.320866 46.255057
L 631.718415 38.533466
L 632.115964 61.698239
L 632.513513 46.255057
L 632.911063 50.115852
L 633.308612 46.255057
L 633.706161 46.255057
L 634.10371 53.976648
L 634.501259 57.837443
L 635.296358 34.67267
L 635.693907 57.837443
L 636.091456 42.394261
L 636.489005 46.255057
L 637.284103 46.255057
L 637.681653 50.115852
L 638.8743 50.115852
L 639.271849 57.837443
L 639.669398 46.255057
L 640.066947 50.115852
L 640.464497 42.394261
L 640.862046 53.976648
L 641.259595 38.533466
L 641.657144 46.255057
L 642.054693 57.837443
L 642.452242 46.255057
L 642.849792 42.394261
L 643.247341 42.394261
L 644.042439 57.837443
L 644.439988 38.533466
L 644.837537 50.115852
L 645.235087 38.533466
L 645.632636 53.976648
L 646.030185 50.115852
L 646.427734 34.67267
L 646.825283 50.115852
L 647.222832 38.533466
L 647.620382 50.115852
L 648.017931 42.394261
L 648.41548 53.976648
L 648.813029 46.255057
L 649.210578 42.394261
L 649.608127 50.115852
L 650.005676 50.115852
L 650.403226 42.394261
L 650.800775 46.255057
L 651.198324 46.255057
L 651.595873 38.533466
L 651.993422 34.67267
L 652.390971 42.394261
L 653.18607 42.394261
L 653.583619 50.115852
L 653.981168 42.394261
L 654.378717 46.255057
L 654.776266 53.976648
L 655.173816 46.255057
L 655.571365 42.394261
L 655.968914 50.115852
L 656.366463 38.533466
L 656.764012 38.533466
L 657.161561 57.837443
L 657.559111 34.67267
L 657.95666 42.394261
L 658.354209 38.533466
L 659.546856 38.533466
L 659.944405 42.394261
L 660.341955 34.67267
L 660.739504 46.255057
L 661.137053 50.115852
L 661.534602 42.394261
L 661.932151 46.255057
L 662.3297 42.394261
L 662.72725 42.394261
L 663.522348 34.67267
L 663.919897 34.67267
L 664.317446 42.394261
L 664.714995 34.67267
L 665.112545 42.394261
L 665.510094 42.394261
L 665.907643 34.67267
L 666.305192 34.67267
L 666.702741 42.394261
L 667.497839 34.67267
L 667.895389 34.67267
L 668.292938 38.533466
L 668.690487 34.67267
L 669.088036 34.67267
L 669.485585 42.394261
L 669.883134 34.67267
L 670.280684 38.533466
L 670.678233 34.67267
L 671.075782 34.67267
L 671.473331 38.533466
L 671.87088 34.67267
L 673.858626 34.67267
L 674.256175 38.533466
L 674.653724 38.533466
L 675.051274 34.67267
L 675.448823 34.67267
L 675.846372 38.533466
L 676.243921 34.67267
L 677.834118 34.67267
L 678.231667 46.255057
L 678.629216 38.533466
L 679.026765 38.533466
L 679.424314 34.67267
L 679.821863 38.533466
L 680.219413 38.533466
L 680.616962 34.67267
L 681.014511 38.533466
L 681.809609 38.533466
L 682.207158 34.67267
L 682.604708 34.67267
L 683.002257 42.394261
L 683.399806 34.67267
L 683.797355 34.67267
L 684.194904 38.533466
L 684.592453 38.533466
L 684.990002 34.67267
L 685.785101 42.394261
L 686.18265 34.67267
L 686.977748 34.67267
L 687.375297 38.533466
L 687.772847 34.67267
L 691.350789 34.67267
L 691.748338 42.394261
L 692.145887 34.67267
L 692.543437 34.67267
L 692.940986 38.533466
L 693.338535 38.533466
L 693.736084 34.67267
L 694.133633 38.533466
L 694.531182 34.67267
L 694.928731 34.67267
L 695.326281 42.394261
L 695.72383 34.67267
L 696.916477 34.67267
L 697.314026 38.533466
L 697.711576 34.67267
L 698.109125 34.67267
L 698.506674 38.533466
L 698.904223 38.533466
L 699.301772 34.67267
L 699.699321 34.67267
L 700.096871 38.533466
L 700.49442 34.67267
L 708.047854 34.67267
L 708.445403 38.533466
L 708.842952 34.67267
L 709.63805 34.67267
L 710.0356 38.533466
L 710.433149 38.533466
L 710.830698 34.67267
L 714.806189 34.67267
L 715.203739 42.394261
L 715.601288 34.67267
L 722.757173 34.67267
L 723.154722 38.533466
L 723.552271 34.67267
L 723.94982 34.67267
L 724.347369 38.533466
L 724.744918 34.67267
L 725.142468 38.533466
L 725.540017 34.67267
L 725.937566 38.533466
L 726.732664 38.533466
L 727.130213 34.67267
L 735.876295 34.67267
L 736.273844 38.533466
L 736.671393 34.67267
L 745.417475 34.67267
L 745.815024 38.533466
L 746.212573 34.67267
L 753.766007 34.67267
L 754.163556 38.533466
L 754.561105 34.67267
L 760.126794 34.67267
L 760.524343 38.533466
L 760.921892 34.67267
L 762.909638 34.67267
L 763.307187 38.533466
L 763.704736 34.67267
L 767.282678 34.67267
L 767.680228 38.533466
L 768.077777 34.67267
L 772.450818 34.67267
L 772.848367 38.533466
L 773.245916 34.67267
L 775.233662 34.67267
L 775.631211 38.533466
L 776.02876 34.67267
L 780.79935 34.67267
L 781.196899 38.533466
L 781.594448 34.67267
L 791.533177 34.67267
L 791.930726 38.533466
L 792.328276 34.67267
L 792.725825 34.67267
L 793.123374 38.533466
L 793.520923 34.67267
L 795.11112 34.67267
L 795.508669 38.533466
L 795.906218 34.67267
L 818.168971 34.67267
L 818.56652 38.533466
L 818.964069 34.67267
L 835.263585 34.67267
L 835.661134 38.533466
L 836.058683 34.67267
L 836.456232 34.67267
L 836.853781 38.533466
L 837.251331 34.67267
L 837.64888 34.67267
L 838.046429 38.533466
L 838.443978 34.67267
L 839.636625 34.67267
L 840.034175 38.533466
L 840.431724 34.67267
L 842.02192 34.67267
L 842.41947 38.533466
L 842.817019 38.533466
L 843.214568 34.67267
L 843.612117 34.67267
L 844.009666 42.394261
L 844.407215 34.67267
L 844.804765 42.394261
L 845.202314 34.67267
L 845.599863 38.533466
L 845.997412 38.533466
L 846.394961 34.67267
L 847.190059 34.67267
L 847.587609 42.394261
L 847.985158 34.67267
L 848.780256 34.67267
L 849.177805 46.255057
L 849.575354 34.67267
L 849.972904 38.533466
L 850.370453 34.67267
L 851.165551 42.394261
L 851.5631 34.67267
L 852.358199 34.67267
L 852.755748 42.394261
L 853.153297 34.67267
L 854.743494 34.67267
L 855.141043 38.533466
L 855.538592 34.67267
L 855.936141 34.67267
L 856.33369 38.533466
L 856.731239 34.67267
L 857.526338 34.67267
L 857.923887 38.533466
L 858.321436 34.67267
L 859.116534 34.67267
L 859.514083 38.533466
L 859.911633 34.67267
L 861.501829 34.67267
L 861.899378 38.533466
L 862.296928 34.67267
L 863.092026 34.67267
L 863.489575 38.533466
L 864.284673 38.533466
L 864.682222 34.67267
L 869.850362 34.67267
L 869.850362 34.67267
" style="fill:none;stroke:#1f77b4;stroke-linecap:square;stroke-width:1.5;"/>
            </g>
            <g id="patch_8">
                <path d="M 506.689205 294.118125
L 506.689205 22.318125
" style="fill:none;stroke:#000000;stroke-linecap:square;stroke-linejoin:miter;stroke-width:0.8;"/>
            </g>
            <g id="patch_9">
                <path d="M 887.14375 294.118125
L 887.14375 22.318125
" style="fill:none;stroke:#000000;stroke-linecap:square;stroke-linejoin:miter;stroke-width:0.8;"/>
            </g>
            <g id="patch_10">
                <path d="M 506.689205 294.118125
L 887.14375 294.118125
" style="fill:none;stroke:#000000;stroke-linecap:square;stroke-linejoin:miter;stroke-width:0.8;"/>
            </g>
            <g id="patch_11">
                <path d="M 506.689205 22.318125
L 887.14375 22.318125
" style="fill:none;stroke:#000000;stroke-linecap:square;stroke-linejoin:miter;stroke-width:0.8;"/>
            </g>
            <g id="text_30">
                <!-- Training Accuracy -->
                <g transform="translate(643.944915 16.318125)scale(0.12 -0.12)">
                    <use xlink:href="#DejaVuSans-84"/>
                    <use x="46.333984" xlink:href="#DejaVuSans-114"/>
                    <use x="87.447266" xlink:href="#DejaVuSans-97"/>
                    <use x="148.726562" xlink:href="#DejaVuSans-105"/>
                    <use x="176.509766" xlink:href="#DejaVuSans-110"/>
                    <use x="239.888672" xlink:href="#DejaVuSans-105"/>
                    <use x="267.671875" xlink:href="#DejaVuSans-110"/>
                    <use x="331.050781" xlink:href="#DejaVuSans-103"/>
                    <use x="394.527344" xlink:href="#DejaVuSans-32"/>
                    <use x="426.314453" xlink:href="#DejaVuSans-65"/>
                    <use x="492.972656" xlink:href="#DejaVuSans-99"/>
                    <use x="547.953125" xlink:href="#DejaVuSans-99"/>
                    <use x="602.933594" xlink:href="#DejaVuSans-117"/>
                    <use x="666.3125" xlink:href="#DejaVuSans-114"/>
                    <use x="707.425781" xlink:href="#DejaVuSans-97"/>
                    <use x="768.705078" xlink:href="#DejaVuSans-99"/>
                    <use x="823.685547" xlink:href="#DejaVuSans-121"/>
                </g>
            </g>
        </g>
    </g>
    <defs>
        <clipPath id="pa09c3ac7d8">
            <rect height="271.8" width="380.454545" x="50.14375" y="22.318125"/>
        </clipPath>
        <clipPath id="pabf81ef888">
            <rect height="271.8" width="380.454545" x="506.689205" y="22.318125"/>
        </clipPath>
    </defs>
</svg>
